# xmcd
#
# Track frame offsets:
#	150
#	8100
#	15975
#	27525
#	36675
#	45750
#	53700
#	64350
#	76575
#	85950
#	99300
#	107550
#	117825
#	127875
#	140550
#	154575
#	163650
#	170550
#	184950
#	194775
#	202350
#	211350
#	222000
#	231525
#	241275
#
# Disc length: 3356 seconds
#
# Revision: 1
# Processed by: cddbd v1.4PL0 Copyright (c) Steve Scherf et al.
# Submitted via: audiograbber 1.81.03
#
DISCID=600d1a19
DTITLE=Various Artist - Banjer Days
DYEAR=1999
DGENRE=
TTITLE0=Paul`Smith - Rippling Waters
TTITLE1=Paul`Smith - Johnny Don't Get Drunk
TTITLE2=George`Gibson - Hand Me down My Old Suitcase
TTITLE3=George`Gibson - Moonshiner
TTITLE4=George`Gibson - Pass Around the Bottle
TTITLE5=Debbie`Grim - Florida Blues
TTITLE6=Debbie`Grimm - Cuckoo
TTITLE7=Debbie`Grimm - Dixie Darling
TTITLE8=Will`Keys - I Need a Prayer of Those I Love
TTITLE9=Will`Keys - Waiting for the Robert E Lee
TTITLE10=Will`Keys - Dead March
TTITLE11=Lee`Sexton - Shady Grove
TTITLE12=Odus`Maggard - Stay Out of Town
TTITLE13=Odus`Maggard - I've Been Here a Long Long Time
TTITLE14=Fred`O'Quinn - Rolling in My Sweet Baby's Arms
TTITLE15=Fred`O'Quinn - Walking in the Parlour
TTITLE16=Lee`Sexton - Rye Whiskey
TTITLE17=Hobart`Crabtree - Little Stream of Whiskey (the dying Hobo)
TTITLE18=Hobart`Crabtree - Old Joe Clark
TTITLE19=George`Gibson - Sourwood Mountain
TTITLE20=George`Gibson - Bonnie Blue Eyes
TTITLE21=Debbie`Grimm - Bonnie Prince Charlie
TTITLE22=Will`Keys - Snake Chapman's Tune
TTITLE23=Paul`Smith - Rock Andy
TTITLE24=Paul`Smith - I'll go Home to My Honey
EXTD=
EXTT0=
EXTT1=
EXTT2=
EXTT3=
EXTT4=
EXTT5=
EXTT6=
EXTT7=
EXTT8=
EXTT9=
EXTT10=
EXTT11=
EXTT12=
EXTT13=
EXTT14=
EXTT15=
EXTT16=
EXTT17=
EXTT18=
EXTT19=
EXTT20=
EXTT21=
EXTT22=
EXTT23=
EXTT24=
PLAYORDER=
